<?xml version="1.0" encoding="iso-8859-1"?>
<!-- Generator: Adobe Illustrator 19.0.0, SVG Export Plug-In . SVG Version: 6.00 Build 0)  -->
<svg version="1.1" id="Layer_1" xmlns="http://www.w3.org/2000/svg" xmlns:xlink="http://www.w3.org/1999/xlink" x="0px" y="0px"
	 viewBox="0 0 512 512" style="enable-background:new 0 0 512 512;" xml:space="preserve">
<g>
	<g>
		<path d="M495.432,55.582h-34.205c-0.181,0-0.356,0.021-0.534,0.027v-0.561c0-9.136-7.432-16.568-16.568-16.568h-68.409
			c-9.136,0-16.568,7.432-16.568,16.568v0.561c-0.179-0.005-0.354-0.027-0.534-0.027h-34.205c-0.181,0-0.356,0.021-0.534,0.027
			v-0.561c0-9.136-7.432-16.568-16.568-16.568h-68.409c-0.181,0-0.356,0.021-0.534,0.027v-0.561c0-9.136-7.432-16.568-16.568-16.568
			h-34.205c-9.136,0-16.568,7.432-16.568,16.568v17.663c-0.178-0.005-0.354-0.027-0.534-0.027h-34.205
			c-0.181,0-0.356,0.021-0.534,0.027V37.946c0-9.136-7.432-16.568-16.568-16.568H67.875c-9.136,0-16.568,7.432-16.568,16.568v17.663
			c-0.179-0.005-0.354-0.027-0.534-0.027H16.568C7.432,55.582,0,63.014,0,72.15v282.188c0,4.427,3.589,8.017,8.017,8.017h257.069
			v58.618c0,2.945,1.615,5.653,4.206,7.054c2.593,1.4,5.743,1.267,8.205-0.348l23.08-15.127l30.288,73.122
			c0.813,1.965,2.374,3.525,4.339,4.339c0.982,0.406,2.026,0.61,3.068,0.61s2.085-0.203,3.068-0.61l32.826-13.597
			c1.965-0.813,3.525-2.374,4.339-4.339s0.813-4.171,0-6.135l-30.267-73.072l27.126-5.491c2.895-0.586,5.232-2.716,6.084-5.543
			c0.853-2.828,0.081-5.895-2.006-7.982l-11.496-11.497h136.039c4.427,0,8.017-3.589,8.017-8.017V72.15
			C512,63.014,504.568,55.582,495.432,55.582z M51.307,346.322H16.033V328.15h35.273V346.322z M51.307,312.117H16.033V105.82h35.273
			V312.117z M51.307,89.787H16.033V72.15c0-0.295,0.239-0.534,0.534-0.534h34.205c0.295,0,0.534,0.239,0.534,0.534V89.787z
			 M119.716,346.322H67.34V328.15h52.376V346.322z M119.716,312.117H67.34v-18.171h52.376V312.117z M119.716,277.912H67.34v-154.99
			h52.376V277.912z M119.716,106.889H67.34V88.718h52.376V106.889z M119.716,72.15v0.534H67.34V72.15V37.946
			c0-0.295,0.239-0.534,0.534-0.534h51.307c0.295,0,0.534,0.239,0.534,0.534V72.15z M171.023,346.322h-35.273V328.15h35.273V346.322
			z M171.023,312.117h-35.273V105.82h35.273V312.117z M171.023,89.787h-35.273V72.15c0-0.295,0.239-0.534,0.534-0.534h34.205
			c0.295,0,0.534,0.239,0.534,0.534V89.787z M222.33,55.048v291.273h-35.273V37.946c0-0.295,0.239-0.534,0.534-0.534h34.205
			c0.295,0,0.534,0.239,0.534,0.534V55.048z M238.363,55.048c0-0.295,0.239-0.534,0.534-0.534h68.409
			c0.295,0,0.534,0.239,0.534,0.534V72.15v0.534h-69.478V55.048z M265.086,346.322h-26.722V328.15h26.722V346.322z M270.035,271.443
			c-2.996,1.241-4.949,4.164-4.949,7.406v33.267h-26.722V88.718h69.478v213.534l-29.071-29.071
			C276.478,270.889,273.029,270.203,270.035,271.443z M335.514,379.085c-2.347,0.476-4.36,1.976-5.486,4.091
			c-1.126,2.115-1.246,4.622-0.33,6.836l30.925,74.659l-18.013,7.461l-30.925-74.659c-0.914-2.206-2.763-3.89-5.045-4.593
			c-0.774-0.238-1.569-0.356-2.36-0.356c-1.545,0-3.074,0.446-4.395,1.312l-18.766,12.299v-107.93l76.423,76.424L335.514,379.085z
			 M359.148,346.322h-7.237L333.74,328.15h25.409V346.322z M359.148,312.117h-34.739c-0.181,0-0.357,0.015-0.534,0.027V105.82
			h35.273V312.117z M359.148,89.787h-35.273V72.15c0-0.295,0.239-0.534,0.534-0.534h34.205c0.295,0,0.534,0.239,0.534,0.534V89.787z
			 M444.66,346.322h-69.478V328.15h69.478V346.322z M444.66,312.117h-69.478v-18.171h69.478V312.117z M444.66,277.912h-69.478
			v-154.99h69.478V277.912z M444.66,106.889h-69.478V88.718h69.478V106.889z M444.66,72.15v0.534h-69.478V72.15V55.048
			c0-0.295,0.239-0.534,0.534-0.534h68.409c0.295,0,0.534,0.239,0.534,0.534V72.15z M495.967,346.322h-35.273V72.15
			c0-0.295,0.239-0.534,0.534-0.534h34.205c0.295,0,0.534,0.239,0.534,0.534V346.322z" fill="white"/>
	</g>
</g>
<g>
	<g>
		<path d="M273.102,209.503c-4.427,0-8.017,3.589-8.017,8.017v25.653c0,4.427,3.589,8.017,8.017,8.017s8.017-3.589,8.017-8.017
			V217.52C281.119,213.092,277.53,209.503,273.102,209.503z" fill="white"/>
	</g>
</g>
<g>
	<g>
		<path d="M273.102,106.889c-4.427,0-8.017,3.589-8.017,8.017v68.409c0,4.427,3.589,8.017,8.017,8.017s8.017-3.589,8.017-8.017
			v-68.409C281.119,110.479,277.53,106.889,273.102,106.889z" fill="white"/>
	</g>
</g>
<g>
	<g>
		<path d="M93.528,141.094c-4.427,0-8.017,3.589-8.017,8.017v102.614c0,4.427,3.589,8.017,8.017,8.017s8.017-3.589,8.017-8.017
			V149.111C101.545,144.683,97.956,141.094,93.528,141.094z" fill="white"/>
	</g>
</g>
<g>
	<g>
		<path d="M409.921,192.401c-4.427,0-8.017,3.589-8.017,8.017v51.307c0,4.427,3.589,8.017,8.017,8.017
			c4.427,0,8.017-3.589,8.017-8.017v-51.307C417.937,195.989,414.348,192.401,409.921,192.401z" fill="white"/>
	</g>
</g>
<g>
	<g>
		<path d="M409.921,141.094c-4.427,0-8.017,3.589-8.017,8.017v17.103c0,4.427,3.589,8.017,8.017,8.017
			c4.427,0,8.017-3.589,8.017-8.017v-17.103C417.937,144.683,414.348,141.094,409.921,141.094z" fill="white"/>
	</g>
</g>
<g>
</g>
<g>
</g>
<g>
</g>
<g>
</g>
<g>
</g>
<g>
</g>
<g>
</g>
<g>
</g>
<g>
</g>
<g>
</g>
<g>
</g>
<g>
</g>
<g>
</g>
<g>
</g>
<g>
</g>
</svg>
