<?xml version="1.0" encoding="UTF-8" standalone="no"?>
<svg
   xmlns:dc="http://purl.org/dc/elements/1.1/"
   xmlns:cc="http://creativecommons.org/ns#"
   xmlns:rdf="http://www.w3.org/1999/02/22-rdf-syntax-ns#"
   xmlns:svg="http://www.w3.org/2000/svg"
   xmlns="http://www.w3.org/2000/svg"
   viewBox="0 0 307.33334 101.04"
   height="101.04"
   width="307.33334"
   xml:space="preserve"
   id="svg2"
   version="1.1"><metadata
     id="metadata8"><rdf:RDF><cc:Work
         rdf:about=""><dc:format>image/svg+xml</dc:format><dc:type
           rdf:resource="http://purl.org/dc/dcmitype/StillImage" /></cc:Work></rdf:RDF></metadata><defs
     id="defs6" /><g
     transform="matrix(1.3333333,0,0,-1.3333333,0,101.04)"
     id="g10"><g
       transform="scale(0.1)"
       id="g12"><path
         id="path14"
         style="fill:#fa820a;fill-opacity:1;fill-rule:nonzero;stroke:none"
         d="m 1084.89,234.648 v 290.25 h 55.9 V 283.676 h 94.17 v -49.028 h -150.07" /><path
         id="path16"
         style="fill:#fa820a;fill-opacity:1;fill-rule:nonzero;stroke:none"
         d="m 1387.95,414.391 c -5.6,15.91 -9.9,30.101 -13.33,46.441 h -0.43 c -3.44,-15.051 -8.18,-31.82 -13.76,-48.59 l -26.23,-73.961 h 80.84 z m 61.91,-179.743 -20.2,59.348 h -109.65 l -20.22,-59.348 h -56.33 l 101.49,290.25 h 63.2 l 103.63,-290.25 h -61.92" /><path
         id="path18"
         style="fill:#fa820a;fill-opacity:1;fill-rule:nonzero;stroke:none"
         d="m 1595.12,229.926 c -20.64,0 -41.28,2.144 -59.34,6.875 l 3.44,52.027 c 16.33,-5.586 39.56,-10.32 60.63,-10.32 28.38,0 50.3,11.609 50.3,38.269 0,55.469 -121.69,30.102 -121.69,125.563 0,51.601 40.85,87.293 110.52,87.293 16.34,0 35.26,-2.153 52.45,-5.164 l -3,-49.02 c -16.34,4.735 -34.4,7.742 -52.04,7.742 -32.24,0 -48.58,-14.621 -48.58,-35.261 0,-52.032 122.12,-32.68 122.12,-123.407 0,-54.609 -43.43,-94.597 -114.81,-94.597" /><path
         id="path20"
         style="fill:#fa820a;fill-opacity:1;fill-rule:nonzero;stroke:none"
         d="m 1821.72,264.746 c 0,-19.344 -15.91,-35.254 -35.26,-35.254 -18.92,0 -34.83,15.91 -34.83,35.254 0,19.356 15.91,35.266 34.83,35.266 19.35,0 35.26,-15.91 35.26,-35.266 z m 0,121.695 c 0,-19.351 -15.91,-35.257 -35.26,-35.257 -18.92,0 -34.83,15.906 -34.83,35.257 0,19.352 15.91,35.258 34.83,35.258 19.35,0 35.26,-15.906 35.26,-35.258" /><path
         id="path22"
         style="fill:#fa820a;fill-opacity:1;fill-rule:nonzero;stroke:none"
         d="m 1958.88,412.672 c -22.78,0 -38.69,-16.774 -41.7,-42.574 h 78.69 c 0.86,26.668 -13.76,42.574 -36.99,42.574 z m 89.88,-79.984 h -132.44 c -0.43,-39.993 19.35,-59.336 58.91,-59.336 21.07,0 43.86,4.726 62.35,13.328 l 5.16,-42.567 c -22.79,-9.035 -49.88,-13.761 -76.54,-13.761 -67.94,0 -105.78,33.964 -105.78,109.218 0,65.364 36.12,113.524 100.19,113.524 62.35,0 89.87,-42.571 89.87,-95.465 0,-7.305 -0.43,-15.91 -1.72,-24.941" /><path
         id="path24"
         style="fill:#fa820a;fill-opacity:1;fill-rule:nonzero;stroke:none"
         d="m 2174.74,481.043 c -8.17,0 -16.33,-0.43 -21.93,-1.289 v -83.856 c 3.88,-0.429 11.61,-0.859 20.22,-0.859 33.53,0 54.17,17.203 54.17,44.293 0,27.949 -17.19,41.711 -52.46,41.711 z m 61.07,-246.395 -80.84,119.973 h -2.16 V 234.648 h -55.9 v 290.25 c 22.79,1.29 49.88,1.719 83.42,1.719 64.07,0 105.35,-22.359 105.35,-81.691 0,-43.004 -30.1,-73.969 -73.95,-80.844 8.16,-10.75 16.33,-21.934 23.64,-31.824 l 69.67,-97.61 h -69.23" /><path
         id="path26"
         style="fill:#004678;fill-opacity:1;fill-rule:nonzero;stroke:none"
         d="M 757.746,0.00390625 H -0.00390625 V 757.766 H 757.746 V 0.00390625" /><path
         id="path28"
         style="fill:#ffffff;fill-opacity:1;fill-rule:nonzero;stroke:none"
         d="m 378.449,646.004 c -3.344,2.09 -8.328,4.066 -12.168,4.992 -25.023,6.047 -56.058,-10.555 -39.968,-34.152 -42.27,-27.86 -56.778,-38.942 -87.84,-66.969 -14.035,9.703 -27.469,11.754 -44.926,6.859 -3.145,23.965 -5.379,42.844 -7.781,85.137 16.664,10.734 20.086,20.219 19.496,22.344 -0.59,2.125 -4.391,5.48 -16.367,0.793 -5.883,-2.313 -33.633,-16.555 -29.547,-28.899 1.949,-2.855 6.425,-3.394 18.14,1.379 1.836,-38.984 3.942,-57.472 7.223,-84.406 -17.402,-9.988 -26.379,-20.312 -34.297,-39.449 -12.769,0.273 -14.348,0.254 -33.672,0.008 0.129,7.168 0.442,23.957 -10.847,27.566 -21.6059,6.898 -46.5434,-46.113 -32.938,-70.031 7.2696,-12.785 25.6602,-11.414 39.891,24.504 11.707,-0.301 11.707,-0.301 33.492,-1.258 -0.445,-12.875 1.074,-20.543 6.246,-31.551 -27.949,-32.625 -42.301,-54.277 -61.0001,-83.586 -10.3125,13.957 -17.7265,14.629 -22.1289,12.727 -20.0859,-8.641 -1.4804,-80.145 22.3633,-85.957 15.3707,-3.75 21.2387,27.367 6.332,61.386 27.3947,42.938 45.0467,64 62.1177,84.368 7.289,-7.184 12.742,-10.325 22.453,-12.926 -4.336,-48.16 -2.93,-73.715 -1.305,-103.305 -7.207,-1.191 -22.211,-3.691 -28.52,-20.422 -14.394,-38.164 35.379,-88.203 71.977,-72.332 31.02,13.438 25.039,72.559 -29.559,91.477 -3.226,42.515 -1.07,72.066 1.215,103.347 13.977,1.426 22.75,4.977 34.77,14.071 46.851,-46.524 71.074,-65.883 94.504,-84.61 -12.242,-23.504 -4.59,-41.933 1.062,-50.828 28.453,-44.765 106.504,-24.414 112.274,17.727 5.109,37.379 -54.575,80.664 -100.383,48.055 -38.836,31.332 -66.43,58.648 -93.117,85.062 6.211,9.551 9.011,16.168 11.515,27.223 79.317,4.84 116.188,0.73 159.61,-5.602 3.179,-12.027 11.625,-43.973 55.172,-63.297 25.539,-11.332 112.707,-34.855 72.558,57.067 -28.918,66.199 -103.496,93.187 -127.23,28.007 -59.442,10.989 -102.118,11.586 -160.075,8.856 -2.472,10.402 -5.402,16.293 -12.054,24.234 34.429,31.418 52.926,44.875 87.758,67.039 10.984,-7.039 22.761,-9.308 35,-6.75 25.097,5.25 31.113,29.25 10.554,42.102 M 441.551,156.105 C 310.027,102.852 162.477,152.141 87.457,266.406 162.598,161.719 302.043,117.824 426.77,168.32 573.07,227.57 643.645,394.191 584.406,540.496 538.352,654.23 427.391,722.164 311.543,718.953 c 122.855,8.543 242.59,-61.656 291.316,-182 C 663.484,387.238 591.262,216.73 441.551,156.105" /></g></g></svg>