<?xml version="1.0" encoding="utf-8"?>
<!-- Generator: Adobe Illustrator 22.0.1, SVG Export Plug-In . SVG Version: 6.00 Build 0)  -->
<svg version="1.1" id="Ebene_1" xmlns="http://www.w3.org/2000/svg" xmlns:xlink="http://www.w3.org/1999/xlink" x="0px" y="0px"
	 viewBox="0 0 162.3 88.9" style="enable-background:new 0 0 162.3 88.9;" xml:space="preserve">
<style type="text/css">
	.st0{fill:url(#SVGID_1_);}
	.st1{fill:url(#SVGID_2_);}
	.st2{fill:#004678;}
	.st3{fill:#147BC4;}
</style>
<g>
	
		<linearGradient id="SVGID_1_" gradientUnits="userSpaceOnUse" x1="88.6644" y1="-3.791" x2="75.9422" y2="48.3207" gradientTransform="matrix(0.97 -0.2432 0.2432 0.97 -40.3206 37.4935)">
		<stop  offset="0" style="stop-color:#065677;stop-opacity:0.51"/>
		<stop  offset="1" style="stop-color:#147BC4"/>
	</linearGradient>
	<path class="st0" d="M51.3,62.4L51.3,62.4c-1.9,0.5-3.9-0.7-4.4-2.6L35.8,15c-0.5-1.9,0.7-3.9,2.6-4.4l0,0c1.9-0.5,3.9,0.7,4.4,2.6
		L54,58C54.5,59.9,53.3,61.9,51.3,62.4z"/>
	
		<linearGradient id="SVGID_2_" gradientUnits="userSpaceOnUse" x1="4.0535" y1="122.0953" x2="8.2241" y2="202.8481" gradientTransform="matrix(0.9362 0.3514 -0.3514 0.9362 85.4315 -104.1597)">
		<stop  offset="0" style="stop-color:#147BC4;stop-opacity:0.45"/>
		<stop  offset="1" style="stop-color:#FA820A"/>
	</linearGradient>
	<path class="st1" d="M20.7,84.9L20.7,84.9c-1.9-0.7-2.8-2.8-2.1-4.7L46.1,6.8C46.8,4.9,49,4,50.8,4.7l0,0c1.9,0.7,2.8,2.8,2.1,4.7
		L25.4,82.7C24.7,84.6,22.6,85.6,20.7,84.9z"/>
</g>
<path class="st2" d="M5.4,13.6h8.1v39H26l-2.7,6.8h-18V13.6z"/>
<path class="st2" d="M56.6,23.7c0-3.3,1.1-5.9,3.3-7.8c2.2-1.8,5.4-2.7,9.6-2.7c4.2,0,7.4,0.4,9.7,1.3v7.7c-2.6-1-5.6-1.5-9.2-1.5
	c-3.5,0-5.3,1.3-5.3,4v1.8c0,1.3,0.2,2.4,0.7,3.1c0.5,0.7,1.4,1.5,2.9,2.2l7.7,4.3c3.6,2,5.4,4.9,5.4,9V49c0,3.4-1.2,6-3.7,7.9
	c-2.5,1.8-5.9,2.8-10.5,2.8s-8.2-0.4-10.5-1.4l-1.8-7.6c2.9,1.2,8.2,1.6,11.8,1.6c4.4,0,6.6-1.4,6.6-4.1v-1.7c0-1.2-0.2-2.1-0.7-2.7
	c-0.5-0.6-1.3-1.3-2.6-2l-7.4-4c-4.1-2.3-6.2-5.5-6.2-9.8V23.7z"/>
<path class="st2" d="M98.9,48.7V30.4c0-3.3,1-5.9,3-7.8c2-1.9,5-2.8,9-2.8c4,0,7,0.9,8.9,2.8c1.9,1.9,2.8,4.5,2.8,7.8v12.8h-15.8
	v4.9c0,1.6,0.5,2.8,1.4,3.5c0.9,0.7,2.7,1.1,5.3,1.1c2.6,0,5.3-0.4,8.1-1.3v7.2c-2.8,0.8-5.8,1.2-9.2,1.2
	C103.4,59.7,98.9,56.1,98.9,48.7z M106.7,36.9h8.4v-6.5c0-2.6-1.4-3.9-4.2-3.9c-2.8,0-4.2,1.3-4.2,3.9V36.9z"/>
<path class="st2" d="M139.6,42.1v17.2h-8V13.6h13.5c3.6,0,6.4,0.9,8.4,2.6c2,1.8,3,4.3,3,7.5v7.8c0,5.2-1.9,8.4-5.6,9.8l7.2,18h-8.8
	l-6.3-17.2H139.6z M139.6,20.4v15.2h4.7c1.5,0,2.5-0.3,3.2-1c0.6-0.6,1-1.7,1-3.2v-7.2c0-2.6-1.4-3.9-4.1-3.9H139.6z"/>
<circle class="st3" cx="90.6" cy="51" r="4"/>
<circle class="st3" cx="90.6" cy="34.7" r="4"/>
</svg>
