<?xml version="1.0" encoding="utf-8"?>
<!-- Generator: Adobe Illustrator 22.0.1, SVG Export Plug-In . SVG Version: 6.00 Build 0)  -->
<svg version="1.1" id="Ebene_1" xmlns="http://www.w3.org/2000/svg" xmlns:xlink="http://www.w3.org/1999/xlink" x="0px" y="0px"
	 viewBox="0 0 121 66" style="enable-background:new 0 0 121 66;" xml:space="preserve">
<style type="text/css">
	.st0{fill:url(#SVGID_1_);}
	.st1{fill:url(#SVGID_2_);}
	.st2{fill:#2D6696;}
	.st3{fill:#529BD0;}
</style>
<linearGradient id="SVGID_1_" gradientUnits="userSpaceOnUse" x1="-135.3051" y1="882.7583" x2="-149.8804" y2="942.4605" gradientTransform="matrix(0.9295 0.3689 -0.3689 0.9295 496.4953 -760.8688)">
	<stop  offset="0" style="stop-color:#147BC4;stop-opacity:0.45"/>
	<stop  offset="1" style="stop-color:#FA820A"/>
</linearGradient>
<path class="st0" d="M17.9,61L17.9,61c-1.3-0.6-2-2-1.5-3.4L36.7,5.2c0.6-1.3,2-2,3.4-1.5l0,0c1.3,0.6,2,2,1.5,3.4L21.3,59.5
	C20.7,60.8,19.2,61.5,17.9,61z"/>
<g>

		<linearGradient id="SVGID_2_" gradientUnits="userSpaceOnUse" x1="-116.9684" y1="889.7274" x2="-126.1178" y2="927.2044" gradientTransform="matrix(0.97 -0.2432 0.2432 0.97 -67.3806 -881.8729)">
		<stop  offset="0" style="stop-color:#065677;stop-opacity:0.51"/>
		<stop  offset="1" style="stop-color:#147BC4"/>
	</linearGradient>
	<path class="st1" d="M40.3,45.7L40.3,45.7c-1.4,0.3-2.8-0.5-3.2-1.9l-8-32.2c-0.3-1.4,0.5-2.8,1.9-3.2l0,0c1.4-0.3,2.8,0.5,3.2,1.9
		l8,32.2C42.5,43.9,41.7,45.3,40.3,45.7z"/>
</g>
<path class="st2" d="M7.2,10.5H13v28h9l-1.9,4.9H7.2V10.5z"/>
<path class="st2" d="M44.1,17.9c0-2.4,0.8-4.3,2.4-5.6c1.6-1.3,3.9-2,6.9-2s5.3,0.3,7,0.9v5.5c-1.9-0.7-4.1-1.1-6.6-1.1
	s-3.8,1-3.8,2.9v1.3c0,1,0.2,1.7,0.5,2.2c0.4,0.5,1,1.1,2.1,1.6l5.5,3.1c2.6,1.4,3.9,3.6,3.9,6.4v2.8c0,2.4-0.9,4.3-2.6,5.6
	c-1.8,1.3-4.3,2-7.5,2c-3.3,0-5.9-0.3-7.5-1L43,37.2c2.1,0.9,5.9,1.1,8.5,1.1c3.2,0,4.8-1,4.8-3v-1.2c0-0.8-0.2-1.5-0.5-1.9
	c-0.3-0.5-1-0.9-1.9-1.4l-5.3-2.9c-3-1.6-4.5-4-4.5-7.1V17.9z"/>
<path class="st2" d="M74.5,35.8V22.7c0-2.4,0.7-4.2,2.1-5.6s3.6-2,6.5-2s5,0.7,6.4,2c1.4,1.4,2,3.2,2,5.6v9.2H80.1v3.5
	c0,1.2,0.3,2,1,2.5s2,0.8,3.8,0.8c1.9,0,3.8-0.3,5.8-0.9v5.1c-2,0.6-4.2,0.9-6.6,0.9C77.7,43.8,74.5,41.1,74.5,35.8z M80.1,27.4h6
	v-4.7c0-1.9-1-2.8-3-2.8s-3,0.9-3,2.8V27.4z"/>
<path class="st2" d="M103.7,31.1v12.4H98v-33h9.7c2.6,0,4.6,0.6,6,1.9s2.1,3.1,2.1,5.4v5.6c0,3.7-1.3,6.1-4,7l5.2,13h-6.3L106.1,31
	L103.7,31.1L103.7,31.1z M103.7,15.5v10.9h3.4c1.1,0,1.8-0.2,2.3-0.7s0.7-1.2,0.7-2.3v-5.1c0-1.9-1-2.8-3-2.8
	C107.1,15.5,103.7,15.5,103.7,15.5z"/>
<circle class="st3" cx="68.5" cy="37.5" r="2.9"/>
<circle class="st3" cx="68.5" cy="25.8" r="2.9"/>
</svg>
