<?xml version="1.0" encoding="UTF-8" standalone="no"?>
<svg
   xmlns:dc="http://purl.org/dc/elements/1.1/"
   xmlns:cc="http://creativecommons.org/ns#"
   xmlns:rdf="http://www.w3.org/1999/02/22-rdf-syntax-ns#"
   xmlns:svg="http://www.w3.org/2000/svg"
   xmlns="http://www.w3.org/2000/svg"
   xmlns:sodipodi="http://sodipodi.sourceforge.net/DTD/sodipodi-0.dtd"
   xmlns:inkscape="http://www.inkscape.org/namespaces/inkscape"
   viewBox="0 0 101.04 101.04"
   height="101.04"
   width="101.04"
   xml:space="preserve"
   id="svg2"
   version="1.1"
   inkscape:version="0.91 r13725"
   sodipodi:docname="laser-figurative-trade-mark.svg"><sodipodi:namedview
     pagecolor="#ffffff"
     bordercolor="#666666"
     borderopacity="1"
     objecttolerance="10"
     gridtolerance="10"
     guidetolerance="10"
     inkscape:pageopacity="0"
     inkscape:pageshadow="2"
     inkscape:window-width="1527"
     inkscape:window-height="886"
     id="namedview15"
     showgrid="false"
     inkscape:zoom="1.0444685"
     inkscape:cx="170.90032"
     inkscape:cy="17.010134"
     inkscape:window-x="691"
     inkscape:window-y="168"
     inkscape:window-maximized="0"
     inkscape:current-layer="svg2"
     showborder="false" /><metadata
     id="metadata8"><rdf:RDF><cc:Work
         rdf:about=""><dc:format>image/svg+xml</dc:format><dc:type
           rdf:resource="http://purl.org/dc/dcmitype/StillImage" /><dc:title /></cc:Work></rdf:RDF></metadata><defs
     id="defs6" /><path
     style="fill:#000000;fill-opacity:1;fill-rule:nonzero;stroke:none"
     d="m 44.947266,-23.539062 c -3.7767,-0.793818 -10.676667,2.897829 -6.94336,7.076171 5.38566,2.952954 11.807701,0.573686 17.589844,2.402344 27.876054,4.942689 50.65468,30.301165 51.79297,58.597656 C 109.4225,73.81691 88.215048,103.34086 59.087891,109.75391 34.129873,116.01415 6.527517,105.22411 -8.1328125,84.232422 -10.317059,81.060603 -15.977265,82.137189 -14.949219,86.5 c 1.825518,7.972497 8.8795969,13.497306 14.46832272,18.97068 C 22.728141,125.37996 58.608519,128.73532 84.740234,112.54688 113.51578,95.684027 127.76997,57.859323 116.5398,26.307014 106.77522,-3.4681577 76.393963,-25.023187 44.947266,-23.539062 Z m -29.658204,12.34375 C 8.828875,-10.32315 0.042332,-4.8723645 2.734375,2.703125 3.869249,5.2778108 8.1726394,3.8237906 6.8007812,7.4472656 6.4332483,11.599336 9.9003512,17.223692 5.421875,19.787109 c -2.0389356,1.376 -2.8840541,5.911249 -5.45898437,5.13086 -0.37429358,-8.157165 -12.64721963,-8.174494 -15.32617163,-1.410157 -4.397016,6.058533 -6.379177,17.375111 1.736328,21.263672 5.5181688,2.101107 9.8581483,-3.557738 12.267578,-7.361328 2.7557818,0.820764 -0.039484,5.409503 -1.3535156,6.447266 -2.9145517,3.303484 -5.6302544,7.117313 -7.8281254,10.923828 -5.293197,-3.979723 -11.204407,2.486523 -10.628906,7.96875 0.50085,7.224822 2.717381,16.573145 10.277344,19.353516 7.4073115,1.959994 10.46547502,-7.489561 8.7187499,-13.212891 -0.7041661,-2.800551 -2.0230346,-5.470953 0.8112393,-7.636312 2.6002979,-3.49389 5.9045196,-9.646848 8.9172763,-11.109782 -1.3323688,5.927828 0.076801,12.426184 -0.7636719,18.113281 -9.2178745,4.190589 -8.1964525,17.958465 -1.2773437,23.888672 5.6175271,7.168372 19.4424591,8.562176 23.6640621,-0.693359 3.954505,-8.788285 -2.021762,-19.116488 -10.304687,-22.792969 -0.284695,-5.870975 -0.381394,-12.174467 0.328125,-17.894531 1.767204,-0.294292 4.425585,-3.332493 5.109375,-0.04687 5.071274,5.179277 11.045052,9.801322 16.125,14.679688 C 36.883802,76.65987 48.595384,87.990459 59.792969,85.964844 69.384485,85.642791 79.755063,75.915543 75.806641,65.935547 71.991494,55.794385 58.881033,50.345455 49.09375,55.169922 43.291424,49.930324 36.377346,44.946478 32.023438,38.820312 c 2.462301,-2.831226 7.226712,-0.379311 10.582009,-1.307338 7.081884,0.002 14.298614,0.26904 21.261741,1.473354 4.925184,13.361094 21.827566,21.253634 35.109374,16.232422 7.713348,-4.94232 4.840448,-15.647963 1.195318,-22.298828 C 95.276809,22.626656 82.905643,13.338933 71.300781,18.541016 c -4.266577,1.308326 -5.135,8.555308 -10.265625,6.132812 -9.499424,-1.556334 -19.785371,-1.000752 -28.914062,-1.542969 4.267703,-4.212431 9.410103,-8.02296 14.515625,-11.322265 3.5286,-0.29349 7.483515,1.751607 11.123047,-0.115235 6.880127,-1.507295 10.068101,-10.87267946 4.550781,-15.6718746 -6.450741,-6.8390174 -21.727699,-4.0412134 -21.761719,6.5292968 -0.7942,3.2247534 -5.855625,3.455112 -7.841797,6.1582032 -3.300796,1.6504286 -5.637155,6.5331506 -9.36914,6.4023436 -1.902444,-1.445108 -6.387628,0.702268 -5.484375,-3.085937 0.0069,-4.3865726 -2.772338,-10.1977624 1.46875,-13.2500004 3.63203,-4.0116403 2.236141,-10.3855276 -4.033204,-9.9707026 z"
     id="path28"
     inkscape:connector-curvature="0" /></svg>