<?xml version="1.0" encoding="UTF-8" standalone="no"?>
<!-- Generated by IcoMoon.io -->

<svg
   xmlns:dc="http://purl.org/dc/elements/1.1/"
   xmlns:cc="http://creativecommons.org/ns#"
   xmlns:rdf="http://www.w3.org/1999/02/22-rdf-syntax-ns#"
   xmlns:svg="http://www.w3.org/2000/svg"
   xmlns="http://www.w3.org/2000/svg"
   xmlns:sodipodi="http://sodipodi.sourceforge.net/DTD/sodipodi-0.dtd"
   xmlns:inkscape="http://www.inkscape.org/namespaces/inkscape"
   version="1.1"
   width="36"
   height="32"
   viewBox="0 0 36 32"
   id="svg2"
   inkscape:version="0.91 r13725"
   sodipodi:docname="gokb.svg">
  <metadata>
     id="metadata12">
    <rdf:RDF>
      <cc:Work
         rdf:about="">
        <dc:format>image/svg+xml</dc:format>
        <dc:type
           rdf:resource="http://purl.org/dc/dcmitype/StillImage" />
      </cc:Work>
    </rdf:RDF>
  </metadata>
  <defs
     id="defs10" />
  <sodipodi:namedview
     pagecolor="#ffffff"
     bordercolor="#666666"
     borderopacity="1"
     objecttolerance="10"
     gridtolerance="10"
     guidetolerance="10"
     inkscape:pageopacity="0"
     inkscape:pageshadow="2"
     inkscape:window-width="1447"
     inkscape:window-height="790"
     id="namedview8"
     showgrid="false"
     inkscape:zoom="7.375"
     inkscape:cx="-6.8103614"
     inkscape:cy="16"
     inkscape:window-x="0"
     inkscape:window-y="0"
     inkscape:window-maximized="0"
     inkscape:current-layer="svg2" />
  <title
     id="title4">gokb2</title>
  <path
     inkscape:connector-curvature="0"
     style="fill:#000000"
     d="m -2.156167,-5.3871259 0,44.1301839 42.075045,0 0,-44.1301839 -42.075045,0 z m 10.6581499,1.341364 c 1.3427051,0 2.6537521,0.2265399 3.7358741,0.6572092 l 0.0027,0 c 1.235761,0.4851284 2.156718,1.2297283 2.612689,2.1925107 a 0.43755061,0.43755061 0 0 1 0.0027,0.00555 c 0.199656,0.43560568 0.325994,0.80389951 0.371702,1.1474254 0.0457,0.34352599 -0.0045,0.68179758 -0.180463,0.9534881 a 0.43755061,0.43755061 0 0 0 0,0.002725 c -0.25308,0.38493936 -0.722742,0.57640956 -1.228233,0.57640956 -0.423056,0 -0.793704,-0.1006719 -1.07201,-0.3286046 -0.27834,-0.22792896 -0.435427,-0.52951768 -0.579136,-0.86730665 a 0.43755061,0.43755061 0 0 0 -0.0027,-0.002725 C 12.020973,-0.05222381 11.735346,-0.3359253 11.225075,-0.56560886 10.7148,-0.79530661 9.9897581,-0.95218965 9.0675861,-1.0100415 a 0.43755061,0.43755061 0 0 0 -0.00268,0 c -0.2571366,-0.017242 -0.5049208,-0.026893 -0.735372,-0.026893 -1.5395569,0 -2.5510896,0.33017635 -3.1810148,0.93194646 a 0.43755061,0.43755061 0 0 1 -0.00536,0.0082744 l -0.4875204,0.44443266 0,13.23043077 0.4632793,0.463281 0.00264,0.0027 c 0.3570533,0.352069 0.7100712,0.569109 1.2309258,0.716468 0.5222036,0.147739 1.2201273,0.215479 2.2005833,0.215479 1.6844133,0 2.9686153,-0.415126 3.4584453,-0.937334 a 0.43755061,0.43755061 0 0 0 0.0027,-0.0027 c 0.189374,-0.197637 0.18238,-0.128364 0.228947,-0.455199 0.04657,-0.32684 0.06195,-1.004324 0.06195,-2.32987 l 0,-2.0228167 -1.136653,-0.013791 a 0.43755061,0.43755061 0 0 1 -0.0054,0 L 9.2587763,9.1713429 8.9490239,9.1630797 A 0.43755061,0.43755061 0 0 1 8.5234924,8.7644356 L 8.496562,8.4654537 8.3753563,7.1564151 8.3403365,6.7766332 a 0.43755061,0.43755061 0 0 1 0.436347,-0.4767435 l 6.0415035,0 a 0.43755061,0.43755061 0 0 1 0.436345,0.4363508 l 0,4.0079165 c 0,1.797587 0.0011,2.737981 -0.0808,3.391102 -0.0819,0.653122 -0.285887,1.03416 -0.576406,1.470647 a 0.43755061,0.43755061 0 0 1 -0.0027,0.0054 c -0.437824,0.641277 -1.181269,1.214036 -1.985104,1.597243 -0.666902,0.3189 -1.267693,0.481566 -2.025506,0.584487 l 0,4.552003 c -3e-6,0.880265 0.02871,2.169308 0.06464,3.216029 0.822034,-0.844515 1.932833,-1.994096 3.625442,-3.830147 l 4.57355,-4.956026 c -0.241835,-0.134499 -0.536518,-0.219843 -0.748841,-0.37978 a 0.43755061,0.43755061 0 0 0 0,-0.0027 c -0.744871,-0.565795 -1.26308,-1.081996 -1.459873,-2.32987 -0.19679,-1.247875 -0.188544,-3.263032 -0.188544,-7.2320317 0,-3.5676211 -4.96e-4,-5.355362 0.06195,-6.39435193 0.06223,-1.08768481 0.261666,-1.51468557 0.552166,-1.93931507 0,0 0.0027,-0.00272 0.0027,-0.00272 0.0011,-0.00141 0.0017,-0.00414 0.0027,-0.00555 0.448288,-0.6740617 1.303905,-1.2380586 2.028201,-1.6133997 a 0.43755061,0.43755061 0 0 1 0.0054,-0.00272 c 0.620428,-0.3144001 1.057241,-0.5083385 1.629562,-0.6087204 0.572321,-0.1003972 1.246131,-0.1104638 2.41337,-0.1104638 1.179618,0 1.856477,0.00965 2.432223,0.1104638 0.575746,0.1002577 1.016273,0.2947475 1.648417,0.6087204 a 0.43755061,0.43755061 0 0 1 0.0054,0 c 0.925208,0.4713105 1.662861,1.0294604 2.057828,1.648414 l 0.474055,0.70031851 0.05926,0.0861901 a 0.43755061,0.43755061 0 0 1 0.07808,0.2506588 l 0,0.10232682 a 0.43755061,0.43755061 0 0 0 0,0.002725 l -0.06195,7.45558687 -0.05926,7.4717488 0,0.137368 a 0.43755061,0.43755061 0 0 1 -0.118517,0.301669 l -0.09696,0.102352 a 0.43755061,0.43755061 0 0 0 -0.0027,0.0027 l -0.711082,0.738019 -0.0027,0.0027 c -0.511722,0.540024 -1.386493,1.090186 -2.154794,1.379067 -0.446166,0.165588 -0.93871,0.274815 -1.432938,0.374396 l 0,3.345317 a 0.43755061,0.43755061 0 0 0 0,0.0027 l -0.01352,2.351419 c 0.93712,-0.5096 2.035687,-0.82421 3.232192,-0.82421 1.112233,0 2.177694,0.234612 3.075967,0.692227 l 0.0027,0 c 1.289224,0.649737 2.094895,1.230642 2.518416,2.327178 a 0.43755061,0.43755061 0 0 0 0,0.0027 c 0.403239,1.04836 0.451739,2.389372 0.425572,4.993733 l 0,0.0027 c -2.1e-5,1.823358 -0.0063,2.83228 -0.0808,3.531169 -0.0744,0.698864 -0.245043,1.112518 -0.50099,1.562227 l 0,0.0027 c -0.39022,0.716538 -1.016983,1.283961 -1.939314,1.764238 l -0.0054,0.0027 c -0.972808,0.522529 -2.180644,0.799966 -3.442284,0.799966 -1.320909,0 -2.542509,-0.308865 -3.471912,-0.878077 -0.04968,0.130803 -0.08637,0.264135 -0.202011,0.379783 a 0.43755061,0.43755061 0 0 1 -0.0054,0.0054 c -0.362137,0.348207 -0.820694,0.328605 -1.182444,0.328605 l -1.088172,0 a 0.43755061,0.43755061 0 0 1 -0.436263,-0.435917 l 0,-19.789088 c -0.06211,-0.0063 -0.124337,-0.01173 -0.185852,-0.01885 l -0.07811,0.0808 -0.651824,0.69492 -0.21548,0.231641 a 0.43755061,0.43755061 0 0 0 -0.0027,0 c -0.681394,0.724155 -2.497415,2.656024 -4.393086,4.681289 a 0.43755061,0.43755061 0 0 0 -0.0027,0 l -2.8147,3.000551 1.04777,0.04848 0.0054,0 c 2.328326,0.08716 3.077984,0.212688 4.077947,0.71647 l 0.0027,0.0027 c 0.974718,0.479296 1.662019,0.989938 1.993185,1.96625 a 0.43755061,0.43755061 0 0 0 0,0.0027 c 0.301138,0.908099 0.342073,2.1203 0.342073,4.325749 l 0,3.948659 a 0.43755061,0.43755061 0 0 1 -0.398637,0.436347 l -0.312446,0.02693 -0.681452,0.05926 -0.694922,0.06195 -0.37709,0.03501 a 0.43755061,0.43755061 0 0 1 -0.476747,-0.436345 l 0,-3.87055 c 0,-1.67503 -0.01061,-2.524812 -0.06195,-2.957454 -0.05082,-0.42888 -0.07094,-0.391092 -0.269348,-0.630277 -0.27597,-0.327825 -0.496288,-0.496522 -1.185138,-0.638359 -0.688848,-0.141835 -1.82075,-0.207398 -3.703552,-0.207398 l -2.548044,0 -0.04041,3.525782 -0.05926,4.274571 a 0.43755061,0.43755061 0 0 1 0,0.01072 l -0.01072,0.301671 a 0.43755061,0.43755061 0 0 1 -0.385168,0.417491 l -0.826904,0.09696 a 0.43755061,0.43755061 0 0 1 -0.013523,0.0027 c -0.095642,0.0083 -0.2011988,0.01616 -0.3205246,0.01616 -0.2751743,0 -0.6766586,0.01038 -1.0127524,-0.323218 0,0 0,-0.0027 0,-0.0027 0,0 -0.00272,0 -0.00272,0 -0.069381,-0.06962 -0.2033326,-0.283543 -0.2343332,-0.474056 -0.031211,-0.191812 -0.039234,-0.429285 -0.05657,-0.888851 a 0.43755061,0.43755061 0 0 0 0,-0.0027 c -0.01688,-0.516669 -0.026634,-1.246556 -0.043171,-2.168167 a 0.43755061,0.43755061 0 0 0 0,-0.0027 c -0.026244,-1.874172 -0.0431,-4.354973 -0.0431,-6.994998 l 0,-9.276389 C 6.0529278,17.790423 4.8158456,17.523154 3.8772864,16.965971 2.8410093,16.350775 2.1470578,15.407733 1.8383128,14.213222 1.757832,13.917647 1.7303597,13.518342 1.7009442,12.955361 1.6714082,12.390004 1.6524826,11.692127 1.6416841,10.940631 1.6200871,9.4376404 1.6312054,7.7218737 1.644412,6.4613499 1.6789051,3.3659217 1.7056661,1.6427761 1.7736995,0.5841475 1.841604,-0.47270135 1.9716244,-0.92980721 2.1885013,-1.3201523 2.6925092,-2.2381012 3.6186584,-2.9463766 4.8254297,-3.412998 5.9124513,-3.8337793 7.1792689,-4.0459632 8.5020469,-4.0459632 Z m 14.6795331,3.12714736 c -1.772819,0 -2.038874,0.0681304 -2.78507,0.41210672 -0.230347,0.11735844 -0.452515,0.25639672 -0.622197,0.37978185 -0.128763,0.09364038 -0.181547,0.14953193 -0.220866,0.18584328 -0.01005,0.0886735 -0.02313,0.22180959 -0.0377,0.50369093 -0.01818,0.35127591 -0.03555,0.83139816 -0.05118,1.43024466 -0.03124,1.1970177 -0.05637,2.8712757 -0.06464,4.9614048 -0.0048,2.1000455 0.0095,3.7943123 0.03233,5.0018253 0.01144,0.603742 0.0253,1.086771 0.04041,1.435626 0.01297,0.299705 0.03034,0.456759 0.03502,0.509069 0.0038,-0.0029 0.01923,0.02151 0.09966,0.0862 0.103793,0.08349 0.252886,0.188229 0.428265,0.290898 0.345975,0.202536 0.793841,0.399138 1.203992,0.498297 a 0.43755061,0.43755061 0 0 1 0.05387,0.01351 c 0.301488,0.08519 0.809588,0.140063 1.406003,0.140063 1.199215,0 2.540248,-0.233331 3.108291,-0.482136 0.338463,-0.14663 0.534074,-0.240874 0.651823,-0.360926 0.117746,-0.120048 0.221409,-0.303084 0.304366,-0.756872 0.165914,-0.90757 0.188544,-2.765852 0.188544,-6.4455224 0,-3.5333244 -0.01704,-5.3176038 -0.175076,-6.20580608 -0.07903,-0.44415707 -0.175772,-0.6335033 -0.298995,-0.77038934 -0.12322,-0.13694165 -0.323246,-0.25145932 -0.657212,-0.42826977 a 0.43755061,0.43755061 0 0 1 -0.0054,-0.00555 c -0.30788,-0.16944622 -0.500427,-0.25086671 -0.859235,-0.30973823 -0.358804,-0.0588839 -0.889766,-0.0835755 -1.775011,-0.0835755 z m 5.29002,26.57129954 c -0.893531,0 -1.562675,0.10682 -2.030894,0.298978 -0.468218,0.192156 -0.741599,0.448537 -0.929255,0.834982 a 0.43755061,0.43755061 0 0 0 0,0.0027 c -0.214139,0.434902 -0.301671,1.085355 -0.301671,3.151388 0,0.747694 0.02798,1.513658 0.06733,2.138631 0.03935,0.624975 0.101794,1.143373 0.129287,1.260554 a 0.43755061,0.43755061 0 0 0 0,0.0027 c 0.190614,0.837759 0.678594,1.303933 1.704982,1.578388 a 0.43755061,0.43755061 0 0 0 0.0027,0 c 0.268693,0.07352 0.568625,0.140212 0.824207,0.185851 0.255581,0.04563 0.487812,0.07003 0.533313,0.07003 l 0.01616,0 0.07811,0 c 0.359865,0 0.93341,-0.13657 1.438325,-0.331299 0.504917,-0.194738 0.966333,-0.477123 1.082784,-0.597956 0.187408,-0.195661 0.184361,-0.122254 0.239721,-0.511762 0.0556,-0.391188 0.08281,-1.179874 0.113125,-2.733895 a 0.43755061,0.43755061 0 0 0 0,-0.0027 c 0.05151,-2.017602 0.0151,-3.159088 -0.129287,-3.803212 -0.143743,-0.641257 -0.316414,-0.791117 -0.767645,-1.096253 -0.317417,-0.208493 -0.478853,-0.300453 -0.735322,-0.360927 -0.256474,-0.06048 -0.642355,-0.0862 -1.335973,-0.0862 z"
     id="rect3391-1" />
</svg>
